/* XPM */
static char *_acbcf17bfc64926bb5f13e61e728a05vjzJPvgHmSkbX7zJ[] = {
/* columns rows colors chars-per-pixel */
"64 64 176 2 ",
"   c #030303",
".  c #0B0B0B",
"X  c #131313",
"o  c #1A1A1A",
"O  c #391E0D",
"+  c #201F1F",
"@  c #3A230A",
"#  c #22211E",
"$  c #242424",
"%  c #282725",
"&  c #2A2926",
"*  c #2C2C2B",
"=  c #302E2D",
"-  c #31312E",
";  c #2F3031",
":  c #343434",
">  c #383736",
",  c #373837",
"<  c #373739",
"1  c #373939",
"2  c #3B3B3B",
"3  c #43250E",
"4  c #432610",
"5  c #4E3710",
"6  c #523515",
"7  c #573A15",
"8  c #553919",
"9  c #593B1A",
"0  c #413E3F",
"q  c #5E4219",
"w  c #60450F",
"e  c #704F12",
"r  c #5B4629",
"t  c #5C462F",
"y  c #41403E",
"u  c #5B4634",
"i  c #5B4737",
"p  c #6A4C27",
"a  c #775528",
"s  c #624C38",
"d  c #6F5E35",
"f  c #3F3F40",
"g  c #444444",
"h  c #484745",
"j  c #474847",
"k  c #474748",
"l  c #494748",
"z  c #474948",
"x  c #4C4B4B",
"c  c #504E4F",
"v  c #53514F",
"b  c #514F50",
"n  c #4F5051",
"m  c #545454",
"M  c #565658",
"N  c #5C5C5C",
"B  c #6C5D4F",
"V  c #75664C",
"C  c #60615F",
"Z  c #5F5F61",
"A  c #636363",
"S  c #676767",
"D  c #696969",
"F  c #6B6B6B",
"G  c #6E6E6E",
"H  c #706F6E",
"J  c #70706E",
"K  c #6E6F70",
"L  c #727172",
"P  c #747474",
"I  c #767575",
"U  c #787877",
"Y  c #777779",
"T  c #797A7A",
"R  c #7C7C7B",
"E  c #7E7E7D",
"W  c #987D38",
"Q  c #91794F",
"!  c #8D7853",
"~  c #887967",
"^  c #807F7F",
"/  c #7E807F",
"(  c #99815C",
")  c #A88F44",
"_  c #B69C5F",
"`  c #BEA35F",
"'  c #A79064",
"]  c #C6AA65",
"[  c #7F8180",
"{  c #848484",
"}  c #8A8A8A",
"|  c #8C8C8C",
" . c #8F8E8E",
".. c #9E9288",
"X. c gray57",
"o. c #949494",
"O. c #969897",
"+. c #979798",
"@. c #979998",
"#. c #9B9B9A",
"$. c #9B9B9C",
"%. c #A1958D",
"&. c #9EA09F",
"*. c #A9A19B",
"=. c #9F9FA0",
"-. c gray63",
";. c #A3A3A3",
":. c #A7A8A7",
">. c #A6A6A8",
",. c #A7A8A8",
"<. c #A9A9A9",
"1. c #ACACAC",
"2. c #AEAEAE",
"3. c #B2ABA4",
"4. c #B1A8AA",
"5. c #AEB0AF",
"6. c #BAB2A6",
"7. c #B1B1AE",
"8. c #B3B3B3",
"9. c #B8B7B7",
"0. c #B9B8B6",
"q. c #BBBBBB",
"w. c #D1BA81",
"e. c #C9BDAA",
"r. c #C4BCB6",
"t. c #C2BDBB",
"y. c #C1C0BE",
"u. c #CBC2BA",
"i. c #D7CAB8",
"p. c #E5D6B9",
"a. c #BEBCC1",
"s. c #C3C3C3",
"d. c #C7C8C7",
"f. c #C9CAC6",
"g. c #C6C4C9",
"h. c #C9C7CE",
"j. c #CCCCCC",
"k. c #DCCBC0",
"l. c #D3CECD",
"z. c #CED5C4",
"x. c #CED1CD",
"c. c #D1D2CE",
"v. c #D6D8CE",
"b. c #C6C4D0",
"n. c #CDCCD2",
"m. c #D2CED1",
"M. c #D1CEDB",
"N. c #CFD0D0",
"B. c #D4D4D4",
"V. c #D9D5D4",
"C. c #D6D8D4",
"Z. c #DAD9D6",
"A. c #D6D5DA",
"S. c #D7D8D9",
"D. c #DBDBDB",
"F. c #E1CFC0",
"G. c #E6D8C6",
"H. c #E1DDDC",
"J. c #E7E3D9",
"K. c #E2E2DE",
"L. c #DFDFE2",
"P. c #E1DFE1",
"I. c #DFE1E2",
"U. c #E4E4E4",
"Y. c #EAE6E6",
"T. c #E9E9E6",
"R. c #E4E4EA",
"E. c #EAE6EA",
"W. c #E4E8E9",
"Q. c #ECECEC",
"!. c #F1EEED",
"~. c #EFF1E7",
"^. c #F1F1EF",
"/. c #E6E5F3",
"(. c #ECECF2",
"). c #F0F0F0",
/* pixels */
".                             * o .   $ * : : = ; = * * * * * * & & % # % $ $ * & & & & & & & = - : - - - - : : 1 : : 1 1 : : 1 ",
"                .       . . . o       * 1 g 2 0 2 1 > : : : * * * & $ # $ & & * = : : : , 2 y y y h h j x x m m m M N A A A A A ",
"                                      ; g g g g 0 2 2 2 2 : - * & $ # $ & & = - > 2 y j j x m N A S D J P P T E { } }  .X.O.$.$.",
".   .                         . .   . 1 x x x x c x x 2 : * * $ $ $ $ & * * : , y h v v m M N S D H L P T R { { } X.#.-.-.-.,.<.",
"                              . X o . g m m x x N E  .A : * $ $ $ $ * * * - : y N E  .P N N A D P P U U R { } { E  .<.2.<.<.2.2.",
"            .                 X X .   f m b l g x E #.G 1 $ $ $ $ $ * * : 1 1 2 m R #.E S S D P P P T E { } { D M T $.>.<.2.2.8.",
"        . .                 . * * X   g m x g : : m D m : $ $ $ % * * 1 1 1 1 : : m D S S G P P T T / {  .X.{ m g m G { -.2.2.8.",
"                                o .   2 x g 1 * * : 2 * $ $ $ $ & : : 1 2 g g 1 1 h m C D G P Y T E { {  .O.{ m g x D O.<.2.8.q.",
"                                X . . 1 g 2 , - * * % $ $ $ & * * : < f g x x j x m A D G P T R T { }  .o.@.O.[ G { =.2.5.8.q.q.",
"                          . . . X X   : g 1 : - * & $ $ $ $ * * : , g k g x m m N A D P P T T E { } X.O.@.#.-.-.&.:.2.8.8.q.s.s.",
"            . . .         .   X o .   : 2 : - * $ $ $ $ $ * ; : 1 1 2 g x x m m A D D P P P P E { {  .X.O.O.#.#.>.>.<.8.8.q.d.j.",
"                            . * .     * : : * $ $ $ $ $ * * : 1 2 g x x m m x m m m M N N M A S D D G G P P P T T T E { { #.q.j.",
"                  .       . . . .     * : * $ $ $ $ $ * * : 1 2 g j x m m N N M m m M m m M N A S D G D G P G P P T T T E <.j.j.",
"                                      * * * $ $ $ $ * : : 1 2 g j x m M N A X.$.{ P P T E { { }  .X.O.#.$.-.>.<.2.8.q.d.d.B.B.B.",
"                                      $ * $ $ $ $ * : : 1 2 g x x n m Z S D P -.<. .E { { X.O.#.#.$.-.,.2.2.8.8.8.q.B.S.B.B.S.S.",
"                                      # $ $ $ $ * = : 1 2 g g x m N S P P P P R :.2.O.} X.O.O.#.$.-.:.2.2.5.8.q.s.B.B.B.B.B.B.S.",
"                                      o $ $ $ * ; : : 1 g g x m M A P  . .E T T { <.8.$.O.O.#.-.-.<.2.2.8.8.q.s.j.Z.B.B.S.j.-.$.",
"                                      o $ * * ; : 1 2 g x x m m M x A X.O.{ T T {  .8.q.-.#.-.-.>.2.8.8.8.8.s.B.B.B.B.B.S.<.P { ",
"                              . .     + * * * : 1 g x x x m m N M g x S D P E E  .o.$.9.q.2.>.>.2.8.8.8.q.q.B.S.B.B.B.D.S.-.D S ",
"                        .             $ * * : , g m N m m m M A N g 2 x A T { { }  .#.=.q.s.8.8.2.8.8.8.s.B.B.B.B.B.B.U.S.8.{ P ",
"                            X     .   $ * : 1 2 m T X.P N m M S S M m A P { } X.#.+.#.$.>.s.d.q.8.9.q.q.j.B.B.B.C.D.D.W.Q.S.j.s.",
"                    .       .   X .   $ : 1 1 1 j T $.T N N x m D P P E } }  .O.O.O.$.>.>.<.d.c.y.q.s.B.S.B.B.Z.D.D.W.Q.Q.Q.W.U.",
"                          . .   X     * 1 2 y 1 1 m P S N } P x N P T { }  .X.O.#.$.-.>.2.2.7.f.c.d.B.B.B.B.B.Z.D.U.Q.Q.Q.Q.W.D.",
"                                      * 2 g g 2 , 2 m N S $. .C x A E }  .O.O.$.-.-.>.2.7.8.8.y.c.S.S.B.S.B.Z.Y.W.Q.Q.).Q.T.U.D.",
"                                  .   : g x x x j x C D D *.O.P N x D } O.O.O.-.-.>.<.2.7.8.8.q.d.x.x.B.B.Z.D.W.Q.Q.Q.Q.W.U.D.B.",
"                      . . .     . .   : x x m M N N D G P >.O.T T S m G  .O.$.>.<.2.7.8.8.a.g.h.n.x.z.v.Z.R./.(.!.).Q.Q.U.D.B.8.",
"                          .           1 x m m M x x A P P $.O.{ } } G m P O.-.<.<.2.7.8.q.a.g.l.V.S.Z.Z.J.Y.(.Q.~.T.W.U.S.B.2.} ",
"                        . .   . X     2 m M N : * g m D E <.#.} X.O.X.P m P $.<.2.8.9.a.a.g.u.u.i.i.k.F.G.J.Q.Q.Q.Q.D.D.B.8.{ O.",
"                .     .   . . . X .   g m M x $ o : x D E >.$. .O.O.#.O.P M T -.8.q.a.a.d.l.*.V d W ) ` w.p.!.Q.E.U.S.B.8.{ O.8.",
"                . . . X . . o . . .   x S m 2 : X $ g G { >.$.O.#.$.$.>.$.P M { <.0.s.d.d.l...r 5 w e W ] p.Q.R.L.D.B.2.{ O.8.q.",
"                  . . .     . . X .   x A m x g o o g P } <.>.#.$.=.-.<.<.>.E N { 8.s.f.B.V...u 8 4 3 a _ p.Y.U.D.B.8.{ O.8.s.q.",
"  X .   .               .   . $ o . . m N m D M o o g P  .2.>.$.=.-.>.<.2.8.2.{ A #.j.N.B.S.%.t 6 @ O r ' i.R.D.S.q.} O.q.q.q.q.",
"        . . . .         . . X o o .   x N S P A $ o k E O.8.<.#.>.<.<.8.8.8.q.8. .8.B.B.S.D.%.u 8 4 O 9 ( i.P.C.B.a.2.q.q.q.q.8.",
". . .     . . .           . . . o . . m N D E A o o x E #.8.>.-.>.2.8.8.q.q.s.d.d.d.B.Z.D.H.%.s p p 6 7 Q e.Z.v.j.d.j.j.s.8.2.2.",
"  . . . . . . . .           . . o X . M N D E A $ o x { $.8.2.<.<.2.8.8.q.s.j.B.B.S.B.S.H.Y.*.s 9 q 8 9 ! e.B.x.f.d.s.d.d.q.2.<.",
"    . . . . X X X         . X . X . . N A G { M o o 2 E $.8.8.2.2.8.q.q.s.B.S.B.B.Z.S.P.E.E.3.B t t u u ~ r.A.n.d.s.q.q.d.d.q.2.",
"    . . . . X . . . .       . X . X . N A G P g o $ g { -.8.8.2.7.8.q.s.j.B.B.B.B.Z.D.W.E.(.D.y.6.3.3.4.r.j.M.b.s.q.8.8.8.s.s.8.",
". . . .   . . X . . .   . . . X o . X A A D N : 1 x P #.<.q.8.8.8.q.s.B.S.B.B.B.S.K.Y.Q.(.(.W.U.D.D.B.B.B.m.h.a.0.8.2.2.2.2.q.q.",
". X X o . . X X . .   . . . . X X . X N A M m x G  .#.>.2.q.q.q.q.s.B.B.B.B.B.S.D.Y.Q.Q.Q.Q.W.I.D.S.C.x.d.d.t.q.8.8.2.2.>.-.>.8.",
"o X o $ X X X . . . . . . . . . X . X N D N S T O.-.<.<.2.q.q.q.d.B.B.B.B.B.D.U.W.Q.Q.Q.Q.T.K.D.S.n.j.f.d.s.q.8.8.8.2.<.$.$.$.$.",
"o X . X o o o o X X   . . . X X X . . D { {  .X.{ X.>.2.8.q.q.q.n.S.B.B.B.S.U.U.Q.Q.^.Q.T.U.S.B.8.X.-.q.s.q.q.8.8.2.<.-.$.#.#.O.",
"X X X . X . . X . . X   . X X o o . . P O.#.#.P M U -.>.2.s.d.j.B.B.B.B.S.D.W.Q.Q.Q.Q.W.U.D.B.9.$. .P X.8.8.8.2.<.>.-.-.$.O.X.X.",
"X o o . X . . X . . . X . X X o . X . P #.-.#.M 1 m G  .2.s.B.S.B.B.B.S.D.D.W.Q.Q.Q.Q.U.S.B.q.-.q.d.$.P  .<.2.2.<.>.$.$.#.O.o.} ",
"X     . X X . X . . . X . o $ * . X X E -.-.#.N 1 1 S -.q.d.j.B.B.B.B.s.q.j.U.).Q.U.U.S.B.q.-.q.d.s.8.O.P ^ >.<.$.$.$.#.O. .} { ",
". X . . X X $ . . . X X X X X $ o . X E >.<.-.{ P P -.s.d.j.B.B.S.D.q.{ } 8.B.W.W.U.D.B.q.>.q.d.s.q.8.2. .G { #.-.$.O.O. .T E O.",
"X . . . X . X . . $ . X X   . . X X X E >.<.2.2.<.8.q.d.d.j.B.S.S.S.$.M D  .8.S.U.S.B.q.-.8.d.s.q.8.8.2.<. .G E X.#.X.X.P m S O.",
"X       . . . . o $ o . $ X o . .   X } 2.8.8.8.q.q.d.d.B.B.S.D.D.D.2.S m P 8.S.S.B.q.-.8.d.q.q.0.8.2.<.<.$.{ D P  . .{ M 1 g D ",
"X     . X . . X o o o . X o X $ $ . X } 8.8.8.q.s.s.d.j.B.S.S.D.W.Q.j.8.8.q.B.S.B.8.>.q.d.d.q.0.8.8.8.<.-.-.#.{ D P { E M 2 : g ",
". .     X X . o . X X X X o X o X .   { 7.0.q.y.d.d.B.B.S.S.D.W.Q.Q.T.D.S.S.S.B.q.>.8.d.s.q.8.8.2.2.>.-.-.#.#. .E S G P D m g m ",
"    .   . o X $ . X X X X X X * X     } 8.q.y.d.j.c.B.S.D.H.W.Q.Q.!.Q.W.U.D.B.8.-.8.d.s.q.8.8.2.2.>.-.-.$.O.O.X.} P N S P P G D ",
"    .       . X . . X . . . X . $     } q.y.s.d.j.B.B.S.U.W.Q.Q.Q.Q.W.U.S.B.q.-.8.d.s.q.q.8.2.2.<.>.-.$.#.X.X.X.{ E P N N G G S ",
"  .   . X X . . . . . X   X : o X .   X.s.d.j.B.B.B.D.D.W.Q.Q.).Q.Q.U.L.S.8.-.q.f.d.s.s.q.8.8.8.2.<.2.>.>.$.#.O. . . .{ A A D N ",
". . . . . . . . .     .   . X X .     X.d.d.j.B.B.S.D.W.Q.Q.Q.Q.W.U.D.B.B.q.8.s.d.d.d.s.s.s.q.q.q.8.8.2.<.>.-.#.#.O.X.X.T D S M ",
". X . .   . X . . .   . X   X $ .   . #.j.B.B.S.S.D.W.Q.Q.Q.Q.W.U.D.S.B.j.d.d.q.q.q.q.8.2.2.>.>.-.$.#.X. .} { { E T P P D N M m ",
"X X X . . . X . . . . X X . X X o . . $.c.B.S.D.U.W.Q.Q.!.Q.W.U.D.B.B.B.d.d.s.q.q.8.8.2.<.>.-.$.#.O.O. .{ E P P P P G S A M m x ",
". . X . . . X . . .   X X X X . X X . >.B.B.B.B.B.S.U.Q.Q.W.D.S.S.B.B.l.d.d.q.8.2.2.<.>.>.-.#.#.X. . .{ E T T P P P D N M m x x ",
". . X X . . $ .       . X o . X . X . <.S.D.D.j.-.#.8.B.W.U.D.S.B.B.j.d.s.q.8.>.}  .-.-.$.#.#.O. .} { E E T Y P K { X.P m x x g ",
". X o X X . X X . . . . X X o o $ $ . <.D.D.D.2.G E >.s.S.S.B.B.j.d.d.s.q.8.2.E M T -.#.X.#.O.O.{ E R T T P G Z M R $.E m x g 1 ",
". o o o * . . . . .     . o $ X X . . 2.D.H.W.<.M M T -.j.S.S.B.d.d.s.s.8.8.-.N 1 m P E  .O.X.} { ^ R U P P S g 1 m G A x g 2 1 ",
". . X X X o X . .     X X   . . $ X . 2.W.Q.Q.j.X.T X.s.S.B.B.j.d.s.q.q.8.2.X.M : 2 N } #.X.} { { T U P G D M : * : g x 2 2 2 : ",
"$ $ * o o o .   . . X X X o . . X X o 8.Q.Q.Q.W.j.s.j.U.S.j.B.d.q.q.8.8.2.8.$.T A G { X.X.} E E E T P P G A m g 2 2 g g 2 1 : : ",
"* $ X o o X o o . . o . . $ X . . X $ 8.Q.Q.Q.W.D.B.S.B.j.d.s.q.q.8.8.2.<.<.>.O. .X.O.X.} { E T T P P D S N m x z z g g 2 : * * ",
"X o $ X X . X . o X o X . X o X X X o #.d.q.q.8.8.8.8.<.-.$.#.O.X.X.X. .{ { { E E E P G S S S S A N M m x x x g g g 2 : : * * * ",
". o . . . . X . . X X X . . o X o X . m A A N m m m m m m x g g g l g g x g 2 g g 2 2 2 1 1 1 : 1 : : : : * * : * * * * * * * $ "
};
