/* XPM */
static char *bigger[] = {
/* columns rows colors chars-per-pixel */
"64 64 190 2 ",
"   c #030303",
".  c #0B0C0C",
"X  c #191919",
"o  c #25110A",
"O  c #231712",
"+  c #23211F",
"@  c #3B2515",
"#  c #242423",
"$  c #282625",
"%  c #2A2925",
"&  c #282729",
"*  c #2B2B2B",
"=  c #262727",
"-  c #312D2D",
";  c #302A27",
":  c #2E302E",
">  c #31302E",
",  c #2E2F31",
"<  c #312D31",
"1  c #2E3132",
"2  c #333333",
"3  c #393735",
"4  c #393837",
"5  c #363638",
"6  c #383639",
"7  c #373938",
"8  c #3B3B3B",
"9  c #353836",
"0  c #452D11",
"q  c #4A3318",
"w  c #563B19",
"e  c #432309",
"r  c #613E15",
"t  c #413E3C",
"y  c #483727",
"u  c #3D403F",
"i  c #5A4113",
"p  c #6B4615",
"a  c #775113",
"s  c #5D4423",
"d  c #41403F",
"f  c #77552A",
"g  c #3E3E41",
"h  c #413F42",
"j  c #3E4041",
"k  c #444343",
"l  c #484746",
"z  c #464748",
"x  c #474849",
"c  c #4C4B4B",
"v  c #494746",
"b  c #504E4E",
"n  c #514C47",
"m  c #53514C",
"M  c #4F4E50",
"N  c #4F5050",
"B  c #535353",
"V  c #585656",
"C  c #595758",
"Z  c #575859",
"A  c #5B5B5B",
"S  c #565758",
"D  c #4F504F",
"F  c #605E5F",
"G  c #5F605F",
"H  c #67645D",
"J  c #74685A",
"K  c #5E5E60",
"L  c #605F60",
"P  c #5F6162",
"I  c #636464",
"U  c #656768",
"Y  c #676868",
"T  c #6B6B6B",
"R  c #686867",
"E  c #716E6A",
"W  c #6F706F",
"Q  c #70706F",
"!  c #7D7468",
"~  c #6E6E70",
"^  c #6E7071",
"/  c #737473",
"(  c #787877",
")  c #777878",
"_  c #7B7B7B",
"`  c #777877",
"'  c #815D32",
"]  c #9D722B",
"[  c #85796A",
"{  c #807E7E",
"}  c #817775",
"|  c #7E807F",
" . c #A98A2F",
".. c #80807F",
"X. c #8A8277",
"o. c #9B8A7F",
"O. c #A99873",
"+. c #C19947",
"@. c #CEB578",
"#. c #C7B06E",
"$. c #7E8081",
"%. c #848483",
"&. c #888785",
"*. c #888887",
"=. c #8B8B8B",
"-. c #878887",
";. c #90908E",
":. c #9B938B",
">. c #949494",
",. c #979798",
"<. c #989799",
"1. c #9B9B9B",
"2. c #989897",
"3. c #8F8E8F",
"4. c #A59E95",
"5. c #9FA09F",
"6. c #A0A09F",
"7. c #BCA883",
"8. c #9F9FA0",
"9. c #A09FA1",
"0. c #A3A2A3",
"q. c #A6A4A9",
"w. c #ACACAC",
"e. c #A7A8A8",
"r. c #B0AFAD",
"t. c #AFB0AD",
"y. c #B0B2AE",
"u. c #AEAEB1",
"i. c #B0AEB0",
"p. c #B3B3B3",
"a. c #B6B9B4",
"s. c #B6B7B8",
"d. c #B7B8B9",
"f. c #BBBBBB",
"g. c #B9B7B7",
"h. c #C0BEBC",
"j. c #C9B98C",
"k. c #BEC0BD",
"l. c #C9C2B9",
"z. c #D9CCBF",
"x. c #BEBEC1",
"c. c #C0BEC2",
"v. c #C4BFC8",
"b. c #C3C3C3",
"n. c #C9C9C6",
"m. c #C5C5C9",
"M. c #CCCCCB",
"N. c #C6C7C8",
"B. c #D0CECF",
"V. c #CDD1CC",
"C. c #CAD8C0",
"Z. c #D2D2CE",
"A. c #D9D9C9",
"S. c #CDCCD1",
"D. c #D2CDD3",
"F. c #D7CDDD",
"G. c #D4D4D3",
"H. c #DAD6D5",
"J. c #D6D8D6",
"K. c #D8D9D6",
"L. c #D6D6D8",
"P. c #D9D6DA",
"I. c #D7D8D9",
"U. c #DBDBDB",
"Y. c #CED2D0",
"T. c #EAD8C5",
"R. c #E1DEDD",
"E. c #E6D6D1",
"W. c #DEE0DD",
"Q. c #D7E1C9",
"!. c #E1E0DE",
"~. c #ECE4DC",
"^. c #F3ECDD",
"/. c #DDDDE1",
"(. c #E1DEE1",
"). c #DEE0E1",
"_. c #E2E2E2",
"`. c #E6E8E5",
"'. c #E9EAE7",
"]. c #E8E5EB",
"[. c #ECECEC",
"{. c #E6E8E9",
"}. c #F0EFEE",
"|. c #EEF0EC",
" X c #F2F1EF",
".X c #EEEEF1",
"XX c #EDE6F1",
"oX c #F1EEF0",
"OX c #F0EAF8",
"+X c #F1F1F1",
/* pixels */
"* < * - , - - < - - * & * % % $ % % + % + $ % % % % % % ; ; ; > > > : > - > > 9 < 2 2 2 - 2 < > 2 > 3 3 3 3 3 3 t t t t t g 8 $ ",
"< 6 9 j z h h g 6 5 5 5 1 1 1 * % + + % * - * 1 9 > 3 3 u d d d n d l D c B B Z A A F L I I L T T T R R Q Q ....%.X.-.%.X.:.=.z ",
"- 8 7 j l h h 8 g g t 8 9 : * = + + % % * > 3 8 d l n n m A H I E / ( ( _ $.$.=.=.>.1.<.0.0.e.i.r.a.g.h.f.n.M.M.V.K.W.`._.'.n.B ",
"- 8 l N b n b c h g 6 < * % + # # # % % > 3 3 d d c b m A G Y T Q / ( ( | %.%.>.<.1.9.8.5.w.w.r.i.a.g.l.n.M.H.G.K.!./.[.[.|.V.B ",
"* k B C V v B / <.,.k - & % + # * * * 1 2 6 c ! >.>.G K P Y T ` ) _ _ | &.;.&.| 2.p.i.w.w.i.p.p.g.h.b.n.G.G.n.;.g.).).|.+X.Xn.N ",
"* c B D b v k C <.w.B & # # + # & * 2 2 8 5 z Z 1.y.I G U ^ / ^ ` ) _ &.%.%.B A <.g.0.i.w.w.p.g.s.l.N.n.Z.M.T Q 0.U.).+X|.'.b.z ",
"1 c B b v g & 8 I T 8 = # # $ * * < 8 8 8 2 2 9 H T I T ^ ^ ` _ _ $.&.,.>./ u 8 I T =.w.u.p.g.b.x.M.M.Z.L.b.C B W ` I.+X[.'.x.l ",
"* x x b t 6 $ & 8 6 $ # # # # * 9 1 g 8 k k 2 8 z B R T ^ ) ` ) | -...;.>./ 8 k k / w.w.p.f.f.c.b.S.Z.L.L.M.=.T I p..X.X_.).f.l ",
"* k x l 8 4 : = & # # + # * * 1 2 8 k k c b k B B T T ~ ` _ _ _ &.=.>.<.2.,./ R ,.p.p.i.s.f.b.M.n.L.L.I.U._.U._.W.|.[.'./.R.f.v ",
"1 k k 8 8 2 : : & # # & = : 2 2 8 k x c B B C G R T ` / _ _ %.%.=.2.>.1.1.e.e.e.i.i.p.p.b.b.b.G.D.K.U.U.`.'..X|. X{._._.I.L.f.k ",
"& k 8 8 9 * & # $ # # & * * 9 8 8 k x c B C C T T ~ ` ` ( _ %.-.;.,.>.5.1.0.e.w.w.p.f.g.b.n.n.J.G.G.U.(.'.[.oX[.'._._.U.L.G.p.k ",
"& 4 4 8 * * * # # $ & * 2 4 8 j c c B B v M B B C C A C C F R I I T Y ^ Q T / ` ( ( | ..0.M.L.L.I.W.{.{.[.oX+X[.'./.U.I.Z.G.w.8 ",
"& 4 > * & = # # # & * 2 2 8 j j c c C B I M B M B B B B B C A K I I I I I Y T Y Q Q I / b.G.M.U.U._.`.[.oX[.{.)._.I.L.L.M.G.0.8 ",
"* 9 2 * = # # # * * 2 8 7 k x c B B A P Y x.>.` ` _ _ X.>.=.2.2.1.5.1.w.w.p.g.g.c.b.U.L.G.L.U.(._.[.[.}.oX'.[.R.!.G.L.G.M.b.1.8 ",
"& : & & # # $ & * 2 5 8 t x c c M B P U Y ` M.8._ _ -.=.>.>.2.1.2.e.w.w.i.p.p.f.f.R.I.G.G.U.R._.`.oX[.oX[._._.G.I.Z.M.M.b.b.1.8 ",
"% * = # # = & * 2 8 8 8 k c c B K ^ / / / ! ) M.q.-.-.>.,.1.1.0.e.e.w.w.p.g.f.b._.G.I.Z.L.U.`.+X|.+X+X[.`.!.U.L.L.G.n.N.b.f.2.k ",
"$ & # # # = , 1 2 4 8 x x B Z A R &.1.-._ ` _ { S.w.=.2.2.1.e.0.i.t.p.g.p.x.b.I.I.Z.I.U.S.-.0.n.{..X'.'.U.U.K.G.M.Z.b.b.s.g.,.8 ",
"# # = + * = 1 7 8 u k c b B Z A c ( y.=._ _ _ -.-.Y.f.>.1.0.1.w.w.p.w.p.g.b.W.G.Z.P.I.K.%.C 1.f.f.'.`.(.I.L.L.M.n.c.f.b.p.p.,.8 ",
"+ + & * 1 2 7 8 d c x B B C G V 4 B T F _ _ %.>.>.<.S.s.e.0.w.t.p.p.f.b.f._.J.G.L.L.(.L.` A I T p.'./.U.L.L.Y.M.M.b.f.f.p.y.,.8 ",
"# + * * * 2 4 k A A B B V A T B 8 7 x Q _ =.%.&.;.8.1.L.f.e.p.w.p.f.p.b.U.G.G.Z.I.I.`.M.9.R Y 0./._.L.U.Y.M.M.N.b.f.f.w.w.e.=.4 ",
"& & * 2 8 8 j R ,.>.I C c I T I B C T _ =.=.>.8.>.5.0.8.U.b.y.y.f.x.x.).J.G.J.J._.R.[.{.G.L.n.[._.(.L.w.g.M.p.} ,.y.c.f.y.w.=.8 ",
"& * 2 1 8 8 8 B 2.w.I C B 8 Y / ` _ %.*.=.>.<.>.8.1.q.q.u./.Y.a.k.b./.U.V.K.U.U._.{.}.}..X`._.(.I.G.,.> ..b.P C 2.p.w.f.9.0.-.9 ",
"% 2 8 8 k d 2 8 I / C I w.B 8 / _ _ -.=.=.,.2.2.8.q.e.t.u.u.I.V.h.R.S.J.Z.Z.U.W.`.[.}.}.'._.!.(.I.,.I B _ w.4 8 I Q 1.w.1.8.%.2 ",
"& 2 8 j k k 8 2 d B I T x./ B k ` %.=.>.,.1.9.q.0.t.t.t.a.a.l./.(./.P.L.K.W.`.`.[.+XoX[.'.!.U.I.>.Q 2.I _ 2.B t k R w.w.1.1._ 3 ",
"* 8 u k c c x k c W Y W k._ / B k -.,.>.2.1.0.0.q.e.r.y.a.p.b.m.D.D.V.U.U.).{.'.+X[.{.(._.I.J.,.~ w.d.J / e.%.W -.e.0.5.2.2.{ 3 ",
"& 8 x c D V A Y I T Q _ b._ .._ C z =.,.1.0.w.w.i.p.a.g.v.m.S.S.C.C.Q.W.)..XoX.X+X{.[.R.U.K.2.T u.m.p.R / p.w.w.w.0.1.1.,.>._ 8 ",
"* 8 c D B V I 4 M ^ ! ` f._ &.=.=.C k >.1.e.e.w.t.p.d.f.v.m.F.P.P.R.K.`.].OXoX X'._.!.L.U.,.T w.b.x.i.I ( w.r.6.5.5.1.,.,.*./ 2 ",
"> k B B A I X d M B _ %.x...>.>.<.>.A k >.r.e.p.p.d.f.x.m.z.T.Q.E.E.T.~.XX+X[.[.`.(.R.K.,.T i.b.x.f.p.I T i.q.e.9.,.,.<.*.3.Y 2 ",
"* k B B I 8 . X 8 M _ _ b.%.>.>.2.1.,.A v 1.u.p.f.x.v.M.Z.[ s a  . .#.@.^. X{.{.U.I.U.,.T w.b.b.p.d.w.Y T e.e.1.1.,.=.>.=.-.R 2 ",
"* v I T c 2 &   2 A _ -.x.=.,.1.1.0.e.1.A c e.d.f.b.m.M.Z.J @ i p a +.@. X`.).).I.G.,.T w.b.f.d.p.p.w.R Y 0.1.9.>.>.=.=._ _ R 2 ",
"* c Y A c k k   * C -.3.x.,.1.5.0.0.i.w.w.G c p.c.n.G.Z.A.J q i o e ] @.[.'.).U.(.,.~ w.b.b.f.f.w.p.w.Y T 0.2.2.<.,.=.%._ _ Y 2 ",
": B T C Z ` x   * Z -.;.x.>.5.1.0.e.w.p.p.w.H z N.M.D.H.H.J 0 w o @ f j.(.(.I.I.1.T w.n.f.f.g.p.w.y.0.Y I <.1.>.=.&._ _ _ / I 2 ",
"- B Y B ` ` B   & A >.,.b.2.1.w.w.w.p.p.f.b.w._ L.Z.H.H.R.J q w o @ p 7.R.(.Z.L.e.f.b.f.f.f.i.p.e.w.0.I Y >.<.=.=.-._ $.` ` K < ",
"1 A T C ` ` c   * I >.1.b.2.e.0.p.w.p.f.f.x.J.b.M.G.E.R.E.J w ' f e p O.E.P.J.M.M.U.b.f.p.w.w.w.0.1.1.R R >.>.%.%._ ) ) ~ T A , ",
"> I / B _ %.B   & R >.0.b.0.w.w.p.p.d.f.b.U.L.G.G.I.(.R.}.[ q r r w s O.A.F.V.k.n.f.U.f.p.w.w.e.e.0.2.R K &.=.{ _ ` ` ) / T S * ",
"* I / C _ -.8   * v 9.1.b.w.w.i.p.f.f.b.U.U.M.I.U.U.(.].XX} 0 w q y y :.G.F.m.C.b.g.d.P.f.p.e.e.1.9.2.R I &.%._ _ ` ! ^ T I M < ",
"2 I / B ../ * X * x 0.0.N.w.w.p.p.f.b.I.L.Z.G.K.R.!.{..X.XI.l.h.f.p.g.Z.M.F.v.f.f.p.p.w.G.f.0.1.2.>.>.I L .._ _ ` Q / T K F c * ",
"9 R / C _ k & 8 D 2.0.t.n.w.f.p.k.b.U.U.G.L.P.U._.`.+X[.oX`.}.R._.L.H.G.S.m.h.f.p.y.w.w.e.S.p.1.2.2.=.R C _ _ _ / W T Y I B v * ",
"9 E Q C B B k =.2.1.w.w.b.p.g.f.N.U.L.M.L.K.I.(.'.[.}.}.[._._.L.L.L.S.n.b.c.s.p.p.w.p.5.0.6.b.w.,.,.%.I B _ ` T / T I C B B k * ",
"2 Y / A C I 3.e.e.w.w.p.b.f.b.M.U.K.L.L.I.(.`.'..X+X[.[.'.!.U.U.G.Z.M.n.f.h.p.p.p.e.w.1.0.2.,.b.w.=.{ R B ) ` W W Y I B c B d < ",
", ^ *.-.=.1.2._ 8.u.u.p.n.f.f.U.K.D.G.I.U._._.[.+X+X`.{.U.I.P.1./ f.b.m.f.g.i.p.w.e.1.5.>.<.,.=.h.e._ Y B / T / >.2.T A x x 8 * ",
"8 ..,.,.5.2.A C :.f.8.s.n.x.U.L.G.G.I.U.!.[.[.}.[.[.`.R.I.P.9.-.%.A p.f.p.p.e.w.8.e.0.2.>.>.=.=._ p.,.Y c W c B 2.w.` B k v 6 * ",
"2 | 2.1.0.>.* 8 I T 3.b.b._.U.M.L.U.!._.'.[.}.+XoX`.!.I.I.9.1.G.b.&.B w.p.y.w.w.e.2.0.>.,.>.&.%._ _ =.I B B 2 8 Y Q B v k 8 2 * ",
"8 | 1.0.e.=.8 * * / b.f.S.M.G.Y.K.L.f.f.G.+X+X'.U.`.I.P.5.1.Z.h.b.g.%.A ,.w.0.2.0.,.,.>.&.=._ _ ( _ / I B k 2 9 h 8 t 8 8 8 2 & ",
"3 &.e.0.w.2._ Y %.b.c.M.Z.L.P.U.U.w.Y 5.m.R.`.'.R.U.J.0.5.M.b.b.f.p.p._ C 1.0.e.,.,.,.3./ *.5.-.( ) W R G v 2 * 2 k k 8 8 9 * & ",
"6 %.6.e.w.i.i.p.d.b.n.M.Z.L.I.U.I.W z %.>.N._.U.L.L.5.1.n.b.b.p.p.p.w.y._ C >.,.2.=.>.F c _ w.=.Q Q T I I C N v c 8 8 8 * 2 * $ ",
"8 =.w.p.p.p.f.f.b.n.M.G.L.P._.U.U.&.8 c / D._.I.U.0.,.M.n.f.b.p.p.w.q.w.6._ B =.,.=.( k 2 c ( A T R I C C x B k x t 4 2 : & & # ",
"8 >.p.w.p.f.f.b.b.M.Z.L.U.I._.`.'.b.p.f.n._.P.I.1.9.Z.m.m.f.p.y.p.p.e.6.0.,._ B =.*._ k 2 2 k Y ~ I I C B c x g k 8 9 9 & = # # ",
"8 ,.w.p.f.f.c.M.M.L.L.L.U._.{.[.|.'._.U.U.U.I.0.1.M.m.f.f.p.p.w.w.0.5.0.,.<.=.` b _ ` A k k Y T A F B b B k k 8 8 2 9 & # # # # ",
"8 ,.p.d.h.b.M.M.Z.L.I.R._.'. X[.+X'.'._./.G.8.1.M.N.h.f.p.p.w.w.0.6.0.1.>.,.3.=.W c ( ( _ W T T I C B c c k j 8 3 * & % # + # # ",
"8 ,.d.f.b.b.n.Z.G.U.I._.'.[.[.}.[.(.R.L.U.1.1.M.N.f.g.p.i.w.r.0.0.1.,.2.3.>.-._ _ Y x R ` Y I Z B c b v k 8 8 2 , & = # # # : = ",
"d 1.b.b.M.M.L.L.L.U._.[.[.+X+X[.{.R.W.I.1.9.G.b.N.b.b.f.p.p.p.e.i.w.0.0.<.1.>.=.>.=.%.x T I C Z B B k z 8 5 7 * * & # # # * * = ",
"8 1.b.b.M.G.L.I.U._.`.[..X+X'._.!.I.L.G.w.b.b.G.M.M.b.n.b.b.b.f.f.g.p.p.q.e.5.0.1.1.>._ Y H B B c x k 8 8 2 , & # # + # & * 2 = ",
"j 4.D.Y.G.G.I.U./.[.'.+X[.'.`.U.I.L.G.M.M.b.f.f.s.p.w.i.e.0.5.,.2.;.=.=.{ _ _ ( Q T T F A B B c v k 8 2 2 * * $ # # = & : 1 4 & ",
"8 0.G.M.G.W._.`.'..X.X[.'.`.(./.L.G.G.b.n.b.f.f.p.p.i.w.0.6.0.,.>.,.=..._ _ ( ` / T T A C B c c k t 8 9 2 * = $ # # # & 2 2 8 = ",
"8 e.G.G.L.G.U./._.'.oX[.(.!.I.L.G.G.M.b.b.d.u.p.i.e.e.6.6.2.>.>.=.=._ _ ( ( / T T A C C B c k k 8 8 , * * $ X = = * 1 2 2 8 8 % ",
"v g.I.I._.U.S.&.1.f._.[.U.!.L.L.G.M.N.b.f.p.8._ <.0.1.0.2.<.,.=.=.-._ $.) ) ~ ) ,.>.A B b x k h 7 5 : * # # = 8 G C 2 8 8 k j * ",
"v s.U.U._.I.%.S 1.s.M.!.I.P.G.M.n.b.f.g.s.w.H B 1.s.=.1.2.>.,._ _ _ [ ` ^ T Z B 2.y.I c c t 8 8 : : * # # + # : P ) c 4 k 8 k * ",
"z f._.U.R.[.) 3 I / w._.L.G.Z.n.b.b.k.p.p.2.< 8 I T %.>.,.=.=.%.{ _ ` / ~ U < g I / c x k 8 7 2 * * = = # # # X & c 8 j x c x > ",
"z l._.`..X+Xp./ / 1.U.U.G.G.M.b.b.f.p.p.w._ 8 * 2 T 1.2.=.&.-._ _ ` / T T k = = * c c 6 k 8 2 2 * & # # # # + & * : d j c c x * ",
"z x.'.[.[.+X'.M.M._.`.D.n.G.b.f.g.p.p.w.p.3.Y K | ,.,.=.-._ _ _ / / / T A c k 8 k x k 8 7 1 1 * # # # = & : & & : k l c B B B * ",
"x N.+X.X+X[.`.).U._.L.V.M.b.x.f.f.p.p.w.w.e.1.2.2.<.>.=.&._ _ _ ( / Y Y A B c c x k k 8 2 1 * * $ # # # & 2 4 8 j k c c B V B * ",
"B p.G.M.n.b.b.f.f.f.w.e.0.0.1.1.1.2.>.=.-.-.%.%.{ ( T T T Y R I F A B M c x z k k 8 7 : * * # # # $ * : 9 9 8 8 k k v c D V B > ",
"8 D B B B c k v k x k d 8 8 8 8 8 8 8 g 8 2 3 8 2 2 2 2 > 9 > 2 < - * 2 * * - * * % & * & * # + + # & = & & & > * * * > * * 2 & "
};
