/* XPM */
static char *cbc9ac59cb8240a0ea617f48f21bc866FugTvCoisVbKfPqI[] = {
/* columns rows colors chars-per-pixel */
"64 64 139 2 ",
"   c #030303",
".  c #0B0B0B",
"X  c #131313",
"o  c #1B1B1B",
"O  c #23221F",
"+  c #242423",
"@  c #282725",
"#  c #292926",
"$  c #292728",
"%  c #272829",
"&  c #2C2B2B",
"*  c #322D2F",
"=  c #2F302F",
"-  c #32312E",
";  c #322F30",
":  c #343434",
">  c #383733",
",  c #393937",
"<  c #373739",
"1  c #3A3738",
"2  c #3C3B3B",
"3  c #4F3512",
"4  c #4D371A",
"5  c #553B14",
"6  c #50391F",
"7  c #543C21",
"8  c #403E3C",
"9  c #5E4018",
"0  c #5B4326",
"q  c #5F482C",
"w  c #41403D",
"e  c #5F4E3B",
"r  c #6F5028",
"t  c #6B5B3A",
"y  c #7A6838",
"u  c #3F4040",
"i  c #444343",
"p  c #4A4A47",
"a  c #4B4B4B",
"s  c #504E4F",
"d  c #51504E",
"f  c #4F5050",
"g  c #525252",
"h  c #555352",
"j  c #545454",
"k  c #565655",
"l  c #585856",
"z  c #575759",
"x  c #5C5A5B",
"c  c #5C5C5C",
"v  c #605E5F",
"b  c #63625F",
"n  c #7D6F5F",
"m  c #5F5F62",
"M  c #636263",
"N  c #646462",
"B  c #666665",
"V  c #686667",
"C  c #696967",
"Z  c #676768",
"A  c #686669",
"S  c #6A6A6A",
"D  c #6B6B6B",
"F  c #6C6A6B",
"G  c #6B6C6B",
"H  c #6D6E6B",
"J  c #6C6D6D",
"K  c #7E6E60",
"L  c #7E7065",
"P  c #70706F",
"I  c #6F6E70",
"U  c #717173",
"Y  c #727274",
"T  c #747375",
"R  c #757575",
"E  c #77787A",
"W  c #797B7B",
"Q  c #7C7C7C",
"!  c #807065",
"~  c #8A796F",
"^  c #928776",
"/  c #90857E",
"(  c #808080",
")  c #848483",
"_  c gray52",
"`  c #888785",
"'  c #898986",
"]  c #8C8C8C",
"[  c #8F908C",
"{  c #939393",
"}  c #979798",
"|  c #9B9B9B",
" . c #9F9FA0",
".. c #A4A4A4",
"X. c #A7A5AB",
"o. c #ACACAC",
"O. c #AFB0AC",
"+. c #B9B0A2",
"@. c #B1B2AF",
"#. c #AEAEB0",
"$. c #B3B3B3",
"%. c #B7B8B6",
"&. c #B9B9B5",
"*. c #B7B7B8",
"=. c #B6B8B8",
"-. c #BCBCBC",
";. c #C0C0BF",
":. c #C9C1BC",
">. c #D1C5B3",
",. c #D6C8B0",
"<. c #BEBEC3",
"1. c #C1BEC4",
"2. c #C4C4C3",
"3. c #CCC6C1",
"4. c #CCC9C6",
"5. c #C4C3CA",
"6. c #CAC6CA",
"7. c #CCCCCB",
"8. c #D3CDC9",
"9. c #D1D1CF",
"0. c #CDCBD1",
"q. c #D4D4D4",
"w. c #DAD1D3",
"e. c #D7D8D7",
"r. c #D9D8D7",
"t. c #D7D7D8",
"y. c #DBDBDB",
"u. c #E2D9D8",
"i. c #DFE0DC",
"p. c #E1E0DF",
"a. c #DFDFE1",
"s. c #E3E3E3",
"d. c #E9E8E6",
"f. c #E7E7E8",
"g. c #EAE6EA",
"h. c #ECECEC",
"j. c #F0F0EF",
"k. c #EBEDF0",
"l. c #F1F1F1",
/* pixels */
"              .                                           o o o   + & : : ; * ; & & & & & & @ @ @ + O @ O + & @ & @ @ @ # & - - ",
"                                            .       . . . o .     + < 2 i 2 8 2 1 < < : & & & & @ O O @ @ & & - < : > , 8 w w i ",
"              .                                           .   .   + 2 i i i i 2 2 2 2 2 < & & @ O O @ @ & : : 2 2 i p p s l b M ",
"                                .                         . . . . & i a a a a s a a < : & @ + + + + @ & - , 2 i p h d k x b V F ",
"                                                            X & . ; s k h a g S ] _ a & @ + + + & & & & - : a H ` ' M x v A I T ",
"                                        .                 . X X   & s g a i i c ] { g & + + + @ @ & : < 2 2 i c [ { J M Z I Y Y ",
"                                      .                 . & & +   & a s i 2 : 2 c B i & @ + + @ & : 2 2 2 < : 2 b H N S I U R W ",
"                                                            o X   & a a 2 < & & 2 2 & + @ @ + & : : 2 2 i i , 2 p l B J U R E W ",
"                                                            X X   & i i 2 < & @ & @ + + @ & & = < 2 i i a a p a k B G J R W Q Q ",
"                                                        . . X +   & i 2 < : & & @ @ + @ & & : : 2 i a i g g c c B J R R W W ( _ ",
"                                          .           . . X o X   @ 2 2 : & @ @ @ @ @ % & : < 2 2 i a a g k k B S S R U R R Q ( ",
"                                                        . @ . .   + < < & & @ + @ @ % & : < 2 u a a f g a a k k c c c c c B B S ",
"                                              .       . . . . .   O : & & @ + + @ % & : < 2 i i a a k k c c c k k c k c c c M B ",
"                                                                  + & & @ + + + $ & : < 2 i i a f g c c J | { W R W W Q ] _ ] ] ",
"                                                                  o & & @ @ @ @ & : < 2 i i a a g z M B H ) @.| ( Q _ ] { { | | ",
"                                                    .             o @ + + @ @ & : < 2 2 i a a k m S R R R R ' $...] ] { { { | ..",
"                                                                  o + + @ % & : : < 2 p i g k c Z ( { _ W W Q ] *.o.} { | | ....",
"                                                                  X + @ & & ; < 2 2 i a a k c k g R | ] Q R Q ] } -.*.| | ....o.",
"                                                            . .   X & & & : < 2 i a a a k k c k i g J S W Q ( { { ..<.*.o...o.o.",
"                                                    .             X & & & < 2 a c c g k k c B k i i g J Q _ _ ] {  ...2.=.o.$.o.",
"  . .                                                   X     .   o & : < 2 i M ] ] S k g c S B k c S R ] ] { | { | ..o.7.2.$.$.",
"    .                                           .     .     . X   o : : 2 2 2 l ] | B c c a M J R R ( ] ] { { { | ......$.7.6.-.",
"      . .                                             . .   . .   + 2 2 u 2 , w M U c S ] c a J W Q _ ] { { | | | ..o.o.o.%.9.7.",
"      .   . .                                     .           .   + 2 2 i w 2 , i c M R o.R k a J _ ] { { | ......o.o.$.$.%.2.t.",
". .   X   . .                                           .     X   @ 2 i a a a a a C S R o.( J k g Q { { { | ....X.o.o.@.%.=.2.6.",
". . . . . . X . .                                 .   .     . X   @ i a a k c c c J J ( $.( Q R c k ( { | ..o.o.o.@.$.*.2.5.0.0.",
". X . . X . X                                         .       .   % a g k c k i g S R Q o._ _ ] ( c k _ | ..o.o.O.$.%.-.1.6.w.w.",
"o o . X . . X . . X                                   .   X . .   & g g c k & 2 a c R ] $.] ] { { ] M c _ ..o.$.$.-.<.1.2.:.>.,.",
"X X X o X X X . .       .                         .   . . . X X   & k k c 2 X + 2 k R _ $.] [ { | | ] M c ] o.*.-.<.<.7.3.^ t y ",
". . X X X o . . X         .                 . . . X . . X . . X   : M M a 2 & X : k Q ] o.{ | | | ....{ B M | $.-.2.2.7.:.n 4 5 ",
". . . . o X X X .   . .   X   .               . . .     . . . o   < M c a i 2 X & c ( { $.| | | ....o.o.| J B ..-.2.7.q.3.n 6 5 ",
". . X o & o o . .   . X       . .   .               .   . + + X . 2 B c c S i . & c _ { *.| |  ...o.o.o.$...J S -.7.q.t.4.K 4 3 ",
". . X o o X o .   . X X             . . . .           . X X o X   < M c J U a X & c ] | =.| | o.o.o.$.$.=.-...] 6.9.q.r.8.L 7 5 ",
". . o o . . . X o . X .     . . .     . .             . . X X X   2 S c R W a X & M ] ..*.| ....$.$.*.=.-.2.7.2.7.q.r.y.8.! 0 r ",
".   . @ X   X . &   . .   .   . X . . X . . X .         . . o o . i S c R W a X & M { ..=...o.o.$.$.*.-.2.q.q.t.e.t.r.s.u.~ 7 9 ",
"    . X X X .   . .   X . .     . . . . . X o         . X X X X   i J M W Q 2 X & a { ..=.$.o.o.*.=.=.2.t.y.t.t.y.y.s.g.y./ e q ",
"    . X o .   . . .   . . . .   . . . . X . .   .       . X X o . i S c W B : o : c | ..-.$.o.$.*.-.2.q.t.t.t.e.y.p.g.h.k.7.&.+.",
"      . X X . o o X .   . X . . . .   . . X . . .   . . . . X o . a J c J a : i c ] ..$.2.o.*.*.=.4.t.y.t.t.t.y.s.d.h.h.k.s.s.y.",
"      . X X X X X . X . . X . X . o . . X X . .   . . . X X X X . a J c k g g Q { | o.o.-.=.=.-.4.t.t.7.q.t.y.y.d.d.h.h.h.s.s.y.",
"      . . . X X . X . . . . X o X @ o X X X . . . . . X . . . X . i U M c S _ | ..o.o.$.2.=.2.7.t.t.t.t.y.y.f.f.h.j.h.d.d.i.y.q.",
"          . . .   . X X X X X o . . o o o o X X .   . . X X X X   a ( _ ] ] ] ( | o.o.*.2.=.2.t.t.q.t.y.y.s.s.h.j.h.d.f.y.e.7...",
"                . X o o + @ . X X . . X . X . . X . . X X X o o   k { | | { M c ] o...*.2.2.q.t.t.t.y.y.s.d.d.h.h.d.f.s.y.7.o.{ ",
"                . o + X @ o X X o . X . . X . . . X . X X o . @ . k { | ..] i i c W | =.6.y.y.q.t.y.y.y.p.d.h.h.h.d.a.y.7.o...2.",
"                . X o o o X X   . . X X . X . . . X . o o & X o . k | | ..] i 2 i Q $.-.6.7.t.q.t.7.=.2.q.d.l.d.s.y.y.7.o...2.2.",
"                . . . X . X X X . . X . + . . . X X X X X o + o . k ......| W J ( *.2.6.q.t.t.y.t.o.W | 2.y.f.f.s.y.6.o.o.2.2.-.",
"                    . . . . . X   . X . . . . + X X X . . X X o . c | o.o.o.o.o.*.2.2.7.q.t.e.y.6.( k Q | 2.s.y.t.7.o...2.2.-.%.",
"                      . . . X .     . X   . X + o . o X o . X . . M ..o.$.*.*.-.2.2.7.q.t.y.y.y.q.] k c ] 6.y.y.7.o...2.2.=.-.$.",
"                        . . X .     X . . X X o o . X o X o @ o . M o.$.$.=.-.2.2.7.q.t.y.y.s.f.s.-.o.$.2.y.y.7.o.o.2.2.2.-.*.@.",
"                      . .     .     X X   @ . X X X X o X X X .   c o.$.=.-.2.4.7.q.t.y.y.s.d.d.h.s.y.y.y.y.7.o...2.2.-.=.*.$.o.",
"                                .     o X o . . o . X . X @ o     c $.%.;.2.6.7.q.t.y.y.s.d.h.h.h.f.f.s.y.6.o...-.2.-.=.*.$.o.o.",
"                                .       . X . . X . . . X . & .   c *.=.2.2.6.9.q.y.y.s.f.h.h.h.d.s.s.e.q.o...-.2.-.=.*.$.o.o.o.",
"                          .   . .   X . X . . . . X   . & + . .   M -.2.6.7.q.r.y.y.s.d.h.l.h.d.f.a.a.q.o...2.2.2.2.2.-.*.*.$.o.",
"                      . . . . X . . .   X X .     .     X X . .   M 2.2.7.q.t.t.y.s.f.h.h.h.d.s.s.e.q.q.*.=.2.7.6.2.2.2.-.-.-.*.",
"                          . X X . .   . X . . .   . X   X @ X .   B 2.7.q.t.y.y.s.f.d.h.h.d.s.y.y.t.t.6.6.2.-.-.=.=.o.$.o.....| ",
"                      .   . . X . . . . X . . . . . o . X o + X   S 7.9.t.y.y.s.f.h.h.h.d.f.i.y.t.t.7.2.2.2.-.=.$.$.o.o...| | { ",
"                      .     . . . X . . X . . .   . X X X . X o   P 9.q.t.r.t.t.y.f.d.d.s.y.y.t.q.q.6.2.2.=.#.o.o...X...| | { { ",
"                      .     . . . X . . @ . .     . X o . . X X   R q.y.y.y.-.{ ..2.y.d.y.y.t.t.q.7.2.-.-.$.| ( | ..| | | | { ] ",
"                        . . . X o X X . X X . . . . X X o o o <   R y.y.y.q.{ B { o.6.y.y.t.t.7.6.2.-.=.*...S c ] ..{ { | { { ( ",
"                        . .   o o X & X . . . . .   . o + X X X . R y.y.s.y._ a S _ *.t.y.t.q.6.2.2.-.*.$.] i i B R ( { { ] ] ( ",
"                  .     . . . X X X X o X . .     . o . . . + + . E s.f.d.f.*.( ( ..q.y.q.t.6.2.2.=.*.@...Q i < i J { { ] _ _ Q ",
"                  .     . X o @ + @ o o .   . . . X o X . . X o . Q s.h.h.h.s.2.2.t.s.q.7.q.2.=.=.*.$.o.o.] J M R ] { ] ] W Q W ",
"                  . . . . X : @ o X o X o + . . o . . o o . . + X _ f.d.d.d.s.y.t.y.q.6.2.2.=.=.*.$.o.o.o.| { ] { { { _ ( W W R ",
"          .       X . . . o X o + o X . X . X X X X . X o X X + X U 2.2.-.=.*.$.$.$...| | | { { { { ] _ _ ( W Q W U S B B M B c ",
"              .     .     . . o . . . . X . . . X X . X X X + o . 2 M M M c k g g g g a i a i a i i a a i 2 i i 2 2 2 < 2 2 < 2 "
};
