/* XPM */
static char *_bf76cc9665647b2eb1e098aac61d24eLpRJpBW1OxHPpUSc[] = {
/* columns rows colors chars-per-pixel */
"64 64 68 1 ",
"  c #020202",
". c #0B0B0B",
"X c #11100F",
"o c #131313",
"O c #1B1B1B",
"+ c #242424",
"@ c #272827",
"# c #292827",
"$ c #2C2C2B",
"% c #312E2F",
"& c #2E2F30",
"* c #333333",
"= c #383637",
"- c #393937",
"; c #373939",
": c #3B3B3B",
"> c #403F3F",
", c #3F3F40",
"< c #434343",
"1 c #484647",
"2 c #484847",
"3 c #484848",
"4 c #4C4C4B",
"5 c #4D4B4C",
"6 c #4C4C4C",
"7 c #504F50",
"8 c #535353",
"9 c #555555",
"0 c #585858",
"q c #5C5C5C",
"w c #626262",
"e c #646464",
"r c gray42",
"t c #6C6C6A",
"y c #6D6D6D",
"u c #717171",
"i c #767676",
"p c gray48",
"a c #7E7E7E",
"s c #808080",
"d c gray52",
"f c #8B8B8B",
"g c #8C8C8E",
"h c gray56",
"j c #929292",
"k c #959595",
"l c #979798",
"z c #99999A",
"x c gray61",
"c c #A0A0A0",
"v c #A7A7A7",
"b c gray66",
"n c #ADADAD",
"m c #B0B0AF",
"M c #AFAFB0",
"N c #B3B3B3",
"B c #BBBBBB",
"V c #C1C1BF",
"C c #C3C3C3",
"Z c #C8C8C7",
"A c #CDCDCD",
"S c #D0D0CE",
"D c #D4D4D4",
"F c #D8D8D7",
"G c #DCDCDC",
"H c #E4E4E4",
"J c #EBEBEB",
"K c gray94",
/* pixels */
"                                          .    .o. o#**%%%$$$$##",
"                         .                    .oOo O-<>>:-===*$$",
"                                        .   ...O.  O:11<<::::-*$",
"                                                .  O3663663<*$#+",
"                                 .              ...$89850igu-#++",
"                                                .o.+883<3uza,+++",
"                                 .    .        oOo +75<-*3e0=+++",
"        .                            .        .++O +61-*@*:*++++",
"                                                oo O1<-*###+++@#",
"                                        .       oO.+<:=*$#++++#$",
"                                              ..oo O:-*$+++++#$*",
"                                       . .   ...O. O=*$#++++#$*-",
"                                               +o  o*$+++++#$*-:",
"                                         .    .  . o$#++++#$=-:<",
"                .                                  o#++++#%=-:<3",
"                                            .      o++++#$*-:<16",
"                                            .      o+++#&*=-<338",
"                                                   .++#$*-::1689",
"                                                   o$$$*;,333890",
"               .       .                           o$#*=:8q0899w",
"         . . .                              .      o$*-:3ugsq89w",
"        ..   ..     .                         .. . o*=:-<yzdqq98",
"        ..          ..                       .. .o O-:<--4yyqps6",
"       ..   ....     ...                     ..... O:<<:-:6qefxe",
"            .o.o...  . ..                  .       O<163230trgvi",
"          ..o.ooo.. ......                 .     . O36800qeyuzvp",
"         . .ooOooo......O..                 .o.  . O6890610yijcs",
"         . ..oOOOoooo o.o                    .     +89q1#<8waxvd",
"         ... .oOOO+o.o..O.oo                 . ... +908$o#1wazbf",
"        ..  . ..oooo.oOo..o .            . .....o. +eq1*OO<edxvj",
"            .o .o...oooO..O. . ..       ...o..o... $w93<#o:rfcnl",
"           .oO. ......Ooooo. . . .   .         .oo $w9ww$o:ygvMz",
"             .. ....oO$OOo   o   .o .  .     ..O+..*wwur*o:ukbNz",
"                  ..ooooO...oO.      .o..     .o+o $ewar$o<iknNx",
"                  ..o+o. .O.o.. ..o......    ...oo.=eway$o<pznNv",
"                 .  .+o o.+. . .  ......o.    ..Oo =resr+o=rxbBn",
"                .   .ooo. ...o.   ... oOO     .o...-eep8++:icNBn",
"                   ...O. .o.. ...  ...o.. . . .ooo.-ree:=3rkvBBn",
"                     .ooooOoo  oo..  ..o..  ...ooo.:r096wfkcnNBB",
"                      ooooo.o....o.#o..o.. .o..oo..-yqwigcvbnBCB",
"                      ..o.....o.o+o+oOooo....oo....<ddfjffvnnBCB",
"                       . . .oOoo.O..oOOooo....ooo..3kzza0yxbvBCZ",
"                          .o+OO$.OO..o.......ooooo 1kxxy=3rdvCSF",
"                          .oOo+Oo.o..o.o...o.oo+oo.1xcxy--9kBCAD",
"                           oOOOoO  ...o....o.OO#O.o3vvcguukCCADD",
"                           ..o...o..o.Oo.oo.oo.O+oo1cbnnbmBCZADD",
"                            .....o .o....+o.o......8nNNNBBCZADFG",
"                             ...oo  .o .o++.OOO....8NNNBVCZADDFG",
"                              ...o  ...OoOo..Ooo$O.8nNBBCZADDFGH",
"                             ..  .  .o.OooooooOOo. 3NBVCASDFFGHJ",
"                                  .  .OOo.o.o.oO+. 3BBCCADDFGHJJ",
"                               .  .   .....o .o.O. 6CCAADFFGHJJK",
"                               .... o.o... o .+$o. 3CZADDFGHJJJJ",
"                             ....o..  o...  . .o.. 6AADFFGHJJJJJ",
"                               .ooo...o.....O..+O  9DDFGHHJJJJHH",
"                             .  .o.o...o....o..OO..qDDDFFDGJJHGG",
"                             .  ...o..o... .Oooo.o.wDFGDnkNAHHGF",
"                          .   . ...O.o+X.  .oOo.oo.qGGGBpucBDGDD",
"                              ...OoOO..... .OooOO#.qGGHBe8ilCFFD",
"                              .. ooo+oo.... .o#ooo.qHHJDxpfNFDDD",
"                           .  ...Oooo+o.....+. .OO.qJJJJDCZGGAAA",
"                           .   oO#O+OO.....oooo.o.ouJJJHGDDDACCB",
"                           o.o.o++OOOoO+..O..o+..oOeCCBBNNNncxzz",
"                       .   ... o.oOoo....Ooo.oOOoo.*ewq098888313"
};
