/* XPM */
static char * east_xpm[] = {
"64 64 27 1",
" 	c #383838",
".	c #545454",
"+	c #484848",
"@	c #EC0000",
"#	c #D40000",
"$	c #A40000",
"%	c #E00000",
"&	c #C80000",
"*	c #BC0000",
"=	c #B00000",
"-	c #880000",
";	c #640000",
">	c #2C2C2C",
",	c #7C0000",
"'	c #980000",
")	c #700000",
"!	c #580000",
"~	c #400000",
"{	c #4C0000",
"]	c #202020",
"^	c #5C5C5C",
"/	c #646464",
"(	c #404040",
"_	c #000000",
":	c #343434",
"<	c #4C4C4C",
"[	c #303030",
"                                                                ",
". .+++++.++++++.+ +++++++......+++++++++.......++++   ++..+++++ ",
" @@#########$++.@@##################$+ .@@@@%%%%%%#####&&&&***$+",
"+@&==#-$#-&$;>+.@*-*-*-*,*'*'*,*,*&$)>+ #$&=&==&)&,&=&-=$,&'&$,>",
"+#$,$-$')$-);>+.#*--$-)$$)'$$)'$)$')!>+.#$$,;$-)-$,-$$-$,-$!$);>",
"+#,$$)'$$)$!~>+.#-*$-$)$-$)$)-,$)',)!>++#)$;-$;$)$,$-$;$',$,$){>",
"+&$,-',$)-$)~>+.**-$--'$)-)$-)',-)$)~> +*)$,$-;$))$$)$-$$,$!$-{>",
"+*,$$)$')')!~>++*&-$)$)$)$)'-),$)',)!> +*'$;-$,-)-,$-$;$,-$,$)~>",
"+*$)-!),!)-)~> .'')){-))-){)-)-){-))~> +*))!)){-{)!-{){-;{)-)-~>",
"+,;;;~~~~~~~~> +,;;!!!!!!!!!~~~~~~~~~> +-;;;;;;;;;;!!!!!!!!!~~~>",
"++>>>>>>>>]]]> .+>>>>>]]]]]>>]]]]>>>>>+. >>>>>>>>>>>]]]]]>>>>>>>",
".    ++++     + +++++++   .+++  ++++++. +....^//^..++( (. .+++. ",
"@###***********$+.+@@######&&&&&&&******************$+(.@@######",
"=--=',=,'-=;=-$~ +.@)=&,*_______$-,-$-$-$,&;&-'*&'&$~ + @&,=-=-=",
"-$-$,--;$-;-$$)~>++#=)$_____________,$;$$-;$-$)-$)$)~ +.&=,$-,$'",
")$$-';$,--';$-)~> +#)$______________________$)$)$$))~>(+&,$$$,$,",
"$--$-,,-,$';$;)~> +#)$______;_______________$)-)$)$)~> +&=,$,$',",
")$;$)-,';$;-$$)~>+.#=!____;-!-);$___________-$)-$)$)~] +=,$$!$,-",
")=;){,)')')!'))~>+.=$)___')-;)-!)')';-)--___)-{)')-)~](.=$,)!)')",
"~{{{{{{{{{{{{~~~ +.$;____;;;;;;;;!!!!!!!!!!!!!!!!!!~~]+ $;~;~~;~",
">>>]>>>]]]>>>]]> + + ____>>>::  :>>>]]]]]>>>]]]]>>>>> +.+>>>>>>>",
"..+  +. . ++    ++.++____ ( (+++. .+(   ((++.(  (+++.+. .( (.+++",
".@@#######***********___***$+..@@##########*******************$+",
".@-=*,*,*,=-=-=&-=-=-___=&)~ +.@*)#$=-$=-='=,;$-)-$,-$'-$,-$!$~>",
" @=-$'$,)-$$-'-$-;$)$___$)=~>+^#*'$;$;-)'-;$;-$;$)$,$-$;$',$,)~>",
"+*;$$)-!$;$)$-'$;-$)-___,$)~>./#*,$,$;$)'$,$,$-;$))$')'-$$,$!)~>",
"+*=-${$!)-$-),$,-;,$;___$)!~>.^#)$)'-;-')$;-;-$,-)-,$-$;$,-$,)~>",
".*);${-,$;$!$;$-;-$-;___,,=~>+.#&)$)$-$-)$;$!)){${$!${$$-;{)-)~>",
"+&$;)))!){))-;-))-));___'))~> .&$)')-!))));-)-{$!)${)-{$!${$))~>",
"+$';;;;;;;;;;;;;;{{{{_______> .$;;;;;;;;;;;;;;!!!!!!!!!!!!~!,!~>",
"++ >>>>>>>>>>>>>>>>> _____________>>>>>>]]]]]>   >]]]>>>>>>>>>>>",
".....++ +   +.//...++_____________. .+.+( ( (+..++( (+++. .+++. ",
"**********$+ .#######___*_________*****$+..&@#########**********",
"$=$='&==&$~ + #$;$)$$___$$)$-;$$;$$)$,$~ +.#$,$)$$;$,-,$)$-$,$)$",
"$,-$'$,$-)~>+.#;$,-$,___$--)--$-;$)-$;$~ ..#$!$)$-;$-$,--')','-)",
"-,$',$,'$)~>+ #;$$,'$___$-$!${--$-)'$,$~ ./#$,$)$-$-$$,$)'-$',$)",
"$-,$'$',-)~ +.#';$,$,___--)-$;$-;-')-$,~ ./#,$$)$;$$,,$,$-''-,)-",
"$-,$,$,'$)~ ++#;$,!'$___$-$)-{;';$')$,$~ +.&$,$$)$--,$,$)'-$,-$)",
"))-'))')))~ ++';$$!$,___$;$!-;$-;')'$;,~>+.&$!$)$$-$-$,$)')',$$)",
"~~{{{{{{{~~>++$;;;;;;___!!!!!!!!!!!!!!~~>++$;;;;;;;;;;;;;;;!!!!~",
">>>>>>>>>>>>+.+>]]]]>___ >]]]]]>>>>>>>>> +++>>>>  + >>]]]>>>>>>>",
".+. +  ++    ++   ++____.++   .+++. + + ++.+. .+.^/.<++ .+.+. . ",
" @#######***********____*******$ . @@########*****************$+",
".#$--$;$$,'$,$)-$;$,____$;$$,)$~ +.@$$;$;$!$)$!$-!'-)$-,$,')-$~>",
"+#$;$-;$-',$;-!$';$!______$,$)'~>++#-$;-;,!-!',$!$;$)-)$-,'$;-~>",
"+#-;$;-);$;$-,-$;'--__________)~> +#-$;;-___$,!'$!$))$)$,$)-;$~>",
" #$-$-;$-,'$,$!-$;$!_______________#$_______)',,!-;$,-'-',)$-$~>",
".#$;-$;$;$;$;$)$;;$!-,$_____________________!$!'!$;-)$),$,'-;)~>",
" &$;$;-)-',$---$';-,!;${$)',________________$,!')-;$)$)$,')$;$~>",
".$;;;;;;;;;{{{{{{{{{{{{{{{{{{{{~________;;;;;!!!!!{{{{{{{{{{{~~>",
" +>>>>>>>>>>   >]]]]>>>]]]]>>]]>>+ +>>>>>>]]]>: :>]>>>>]]]>>>>>>",
". . .+.++++.//.+. .+.+(   (+.++ ++. .++++++++<...<++++ []][ ++.+",
"#####************$+.+@@########***************$+ .@#####********",
",$!$$;';$,&,$;$,$~>++#$$$$;${$,$;$;$'$;$;$!$);~ +.#$;-$!$)$)$;$)",
"$,,$,$;',;$!,;-;-~>++#,$)$;){,',$-;-';,-)-!$;$~:+.#;$!$)$)-$)$-{",
"$,!,$;';,$,!$-;',~>+(#,,)$;,,$!${$$;$;$;-!--;)~>+.#;$))$$-)-);)-",
",'!';;$;$,$!,);$;~>+(#${)$;${$,';$;-,;$;$-!)';~>+.#$;!$-))$)$;)$",
";$,$;$;-$;$,!-$,-~>+(#{$$;$,)-!,{$;$;,,;-)!-);~>++#;$-$)$-))!$)$",
";$,,;'';';,!$;$;'~>++#{$)$;,,-{';-{$,;$-;$!$!-~> +#;$!)!$)$)!;${",
",'!$;;-;,,$!$;)-,~>+.&${)$;${-;$;$);$;,$;-)-;-~> +&;;!$!$)$)$;$)",
"{{{{{{{{{{{{{{{{~~>++$~~~~~{{{{{{{{{{{{{{{{{{~~]+.$~~{{{{{{{{{{{",
">>>>>>>>>>>>>>>>>>>+.+ ::>>>>>>>>>>>>>>]]]]]>]]] ++>>>>>>]]]]]>>",
" . .   +++++.. ++++.....+++.+++.++ +++(  (  (+( (.++ .++++( (+++",
"................................................................"};
