/* XPM */
static char * north_xpm[] = {
"64 64 27 1",
" 	c #383838",
".	c #545454",
"+	c #484848",
"@	c #EC0000",
"#	c #D40000",
"$	c #A40000",
"%	c #E00000",
"&	c #C80000",
"*	c #BC0000",
"=	c #B00000",
"-	c #880000",
";	c #640000",
">	c #2C2C2C",
",	c #7C0000",
"'	c #980000",
")	c #700000",
"!	c #580000",
"~	c #400000",
"{	c #4C0000",
"]	c #202020",
"^	c #5C5C5C",
"/	c #646464",
"(	c #404040",
"_	c #000000",
":	c #343434",
"<	c #4C4C4C",
"[	c #303030",
"                                                                ",
". .+++++.++++++.+ +++++++......+++++++++.......++++   ++..+++++ ",
" @@#########$++.@@##################$+ .@@@@%%%%%%#####&&&&***$+",
"+@&==#-$#-&$;>+.@*-*-*-*,*'*'*,*,*&$)>+ #$&=&==&)&,&=&-=$,&'&$,>",
"+#$,$-$')$-);>+.#*--$-)$$)'$$)'$)$')!>+.#$$,;$-)-$,-$$-$,-$!$);>",
"+#,$$)'$$)$!~>+.#-*$-$)$-$)$)-,$)',)!>++#)$;-$;$)$,$-$;$',$,$){>",
"+&$,-',$)-$)~>+.**-$--'$)-)$-)',-)$)~> +*)$,$-;$))$$)$-$$,$!$-{>",
"+*,$$)$')')!~>++*&-$)$)$)$)'-),$)',)!> +*'$;-$,-)-,$-$;$,-$,$)~>",
"+*$)-!),!)-)~> .'')){-))-){)-)-){-))~> +*))!)){-{)!-{){-;{)-)-~>",
"+,;;;~~~~~~~~> +,;;!!!!!!!!!~~~~~~~~~> +-;;;;;;;;;;!!!!!!!!!~~~>",
"++>>>>>>>>]]]> .+>>>>>]]]]]>>]]]]>>>>>+. >>>>>>>>>>>]]]]]>>>>>>>",
".    ++++     + +++++++   .+++  ++++++. +....^//^..++( (. .+++. ",
"@###***********$+.+@@######&&&&&&&******************$+(.@@######",
"=--=',=,'-=;=-$~ +.@)=&,*;-*--&'$-,-$-$-$,&;&-'*&'&$~ + @&,=-=-=",
"-$-$,--;$-;-$$)~>++#=)$,$$-$;$);-$,$,$;$$-;$-$)-$)$)~ +.&=,$-,$'",
")$$-';$,--';$-)~> +#)$-'--;--)$-;$-,;,--$!-,$)$)$$))~>(+&,$$$,$,",
"$--$-,,-,$';$;)~> +#)$$,$;-$;)$;-$,-,$;$-!$;$)-)$)$)~> +&=,$,$',",
")$;$)-,';$;-$$)~>+.#=!$,$-;-!-);$-,!,$;-!-$;-$)-$)$)~] +=,$$!$,-",
")=;){,)')')!'))~>+.=$____')-;)-!)')';-)--!'))-{___-)~](.=$,)!)')",
"~{{{{{{{{{{{{~~~ +.$;_____;;;;;;;!!!!!!!!!!!!!____!~~]+ $;~;~~;~",
">>>]>>>]]]>>>]]> + + _____>>::  :>>>]]]]]>>>]]____>>> +.+>>>>>>>",
"..+  +. . ++    ++.++______ (+++. .+(   ((++._____++.+. .( (.+++",
".@@#######**********________+..@@##########**____*************$+",
".@-=*,*,*,=-=-=&-=-__________+.@*)#$=-$=-='=_____-$,-$'-$,-$!$~>",
" @=-$'$,)-$$-'-$-;$__________+^#*'$;$;-)'-;_____$)$,$-$;$',$,)~>",
"+*;$$)-!$;$)$-'$;-$____;,_____/#*,$,$;$)'$,_____$))$')'-$$,$!)~>",
"+*=-${$!)-$-),$,-;,___-;$)_____#)$)'-;-')$;____,-)-,$-$;$,-$,)~>",
".*);${-,$;$!$;$-;-$___;-,,=____#&)$)$-$-)$;___){${$!${$$-;{)-)~>",
"+&$;)))!){))-;-))-____')'))_____$)')-!))));___{$!)${)-{$!${$))~>",
"+$';;;;;;;;;;;;;;{____{{{{~~_____;;;;;;;;;____!!!!!!!!!!!!~!,!~>",
"++ >>>>>>>>>>>>>>>____ >>>>>>_____>>>>>>]]____   >]]]>>>>>>>>>>>",
".....++ +   +.//..___+((  (  _____. .+.+( ____..++( (+++. .+++. ",
"**********$+ .###____#********_____****$+.___#########**********",
"$=$='&==&$~ + #$;____;$-$$)$-;$____)$,$~ ____,$)$$;$,-,$)$-$,$)$",
"$,-$'$,$-)~>+.#;$____$')$--)--$_____$;$~ ____!$)$-;$-$,--')','-)",
"-,$',$,'$)~>+ #;$___$)$)$-$!${--_____,$~ ____,$)$-$-$$,$)'-$',$)",
"$-,$'$',-)~ +.#';___,!'---)-$;$-;_____,~____,$$)$;$$,,$,$-''-,)-",
"$-,$,$,'$)~ ++#;____$)--$-$)-{;';_____$~____$,$$)$--,$,$)'-$,-$)",
"))-'))')))~ ++';____,)$)$;$!-;$-;'__________$!$)$$-$-$,$)')',$$)",
"~~{{{{{{{~~>++$;____;;;;!!!!!!!!!!!________$;;;;;;;;;;;;;;;!!!!~",
">>>>>>>>>>>>+.+>___]>>   >]]]]]>>>>________+>>>>  + >>]]]>>>>>>>",
".+. +  ++    ++____++++..++   .+++. ______.+. .+.^/.<++ .+.+. . ",
" @#######******____************$ . @______###*****************$+",
".#$--$;$$,'$,$)____,$-$;$;$$,)$~ +.@______!$)$!$-!'-)$-,$,')-$~>",
"+#$;$-;$-',$;-!___$!-'-;$,$,$)'~>++#-_____!-!',$!$;$)-)$-,'$;-~>",
"+#-;$;-);$;$-,-___--!,${'!-;--)~> +#-_____,!$,!'$!$))$)$,$)-;$~>",
" #$-$-;$-,'$,$!___$!-$!'$,$$$),~> +#$____$!$)',,!-;$,-'-',)$-$~>",
".#$;-$;$;$;$;$)___$!-,$,-;';-)$~] .#$____,!$!$!'!$;-)$),$,'-;)~>",
" &$;$;-)-',$---$';-,!;${$)',$)$~] .&)$;-;$!,$,!')-;$)$)$,')$;$~>",
".$;;;;;;;;;{{{{{{{{{{{{{{{{{{{{~>+.$;;;;;;;;;!!!!!{{{{{{{{{{{~~>",
" +>>>>>>>>>>   >]]]]>>>]]]]>>]]>>+ +>>>>>>]]]>: :>]>>>>]]]>>>>>>",
". . .+.++++.//.+. .+.+(   (+.++ ++. .++++++++<...<++++ []][ ++.+",
"#####************$+.+@@########***************$+ .@#####********",
",$!$$;';$,&,$;$,$~>++#$$$$;${$,$;$;$'$;$;$!$);~ +.#$;-$!$)$)$;$)",
"$,,$,$;',;$!,;-;-~>++#,$)$;){,',$-;-';,-)-!$;$~:+.#;$!$)$)-$)$-{",
"$,!,$;';,$,!$-;',~>+(#,,)$;,,$!${$$;$;$;-!--;)~>+.#;$))$$-)-);)-",
",'!';;$;$,$!,);$;~>+(#${)$;${$,';$;-,;$;$-!)';~>+.#$;!$-))$)$;)$",
";$,$;$;-$;$,!-$,-~>+(#{$$;$,)-!,{$;$;,,;-)!-);~>++#;$-$)$-))!$)$",
";$,,;'';';,!$;$;'~>++#{$)$;,,-{';-{$,;$-;$!$!-~> +#;$!)!$)$)!;${",
",'!$;;-;,,$!$;)-,~>+.&${)$;${-;$;$);$;,$;-)-;-~> +&;;!$!$)$)$;$)",
"{{{{{{{{{{{{{{{{~~>++$~~~~~{{{{{{{{{{{{{{{{{{~~]+.$~~{{{{{{{{{{{",
">>>>>>>>>>>>>>>>>>>+.+ ::>>>>>>>>>>>>>>]]]]]>]]] ++>>>>>>]]]]]>>",
" . .   +++++.. ++++.....+++.+++.++ +++(  (  (+( (.++ .++++( (+++",
"................................................................"};
