/* XPM */
static char * west_xpm[] = {
"64 64 27 1",
" 	c #383838",
".	c #545454",
"+	c #484848",
"@	c #EC0000",
"#	c #D40000",
"$	c #A40000",
"%	c #E00000",
"&	c #C80000",
"*	c #BC0000",
"=	c #B00000",
"-	c #880000",
";	c #640000",
">	c #2C2C2C",
",	c #7C0000",
"'	c #980000",
")	c #700000",
"!	c #580000",
"~	c #400000",
"{	c #4C0000",
"]	c #202020",
"^	c #5C5C5C",
"/	c #646464",
"(	c #404040",
"_	c #000000",
":	c #343434",
"<	c #4C4C4C",
"[	c #303030",
"                                                                ",
". .+++++.++++++.+ +++++++......+++++++++.......++++   ++..+++++ ",
" @@#########$++.@@##################$+ .@@@@%%%%%%#####&&&&***$+",
"+@&==#-$#-&$;>+.@*-*-*-*,*'*'*,*,*&$)>+ #$&=&==&)&,&=&-=$,&'&$,>",
"+#$,$-$')$-);>+.#*--$-)$$)'$$)'$)$')!>+.#$$,;$-)-$,-$$-$,-$!$);>",
"+#,$$)'$$)$!~>+.#-*$-$)$-$)$)-,$)',)!>++#)$;-$;$)$,$-$;$',$,$){>",
"+&$,-',$)-$)~>+.**-$--'$)-)$-)',-)$)~> +*)$,$-;$))$$)$-$$,$!$-{>",
"+*,$$)$')')!~>++*&-$)$)$)$)'-),$)',)!> +*'$;-$,-)-,$-$;$,-$,$)~>",
"+*$)-!),!)-)~> .'')){-))-){)-)-){-))~> +*))!)){-{)!-{){-;{)-)-~>",
"+,;;;~~~~~~~~> +,;;!!!!!!!!!~~~~~~~~~> +-;;;;;;;;;;!!!!!!!!!~~~>",
"++>>>>>>>>]]]> .+>>>>>]]]]]>>]]]]>>>>>+. >>>>>>>>>>>]]]]]>>>>>>>",
".    ++++     + +++++++   .+++  ++++++. +....^//^..++( (. .+++. ",
"@###***********$+.+@@######&&&&&&&******************$+(.@@######",
"=--=',=,'-=;=-$~ +.@)=&,*;-*--&'$-,-$-$-$,&;&-'*&'&$~ + @&,=-=-=",
"-$-$,--;$-;-$$)~>++#=)$,$$-$;$);-$,$,$;$$-;$-$)-$)$)~ +.&=,$-,$'",
")$$-';$,--';$-)~> +#)$-'--;--)$-;$-,;,--$!-,$)$)$$))~>(+&,$$$,$,",
"$--$-,,-,$';$;)~> +#)$$,$;-$;)$;-$,-,$;$-!$;$)-)$)$)~> +&=,$,$',",
")$;$)-,';$;-$___>+.#=!$,$-;-!-);$-,!,$;-!-$;-$)-$)$)~] +=,$$!$,-",
")=;){,)')')!'____+.=$)-!)')-;)-!)')';-)--!'))-{)')-)~](.=$,)!)')",
"~{{{{{{{{{{{{____+.$;;;;;;;;;;;;;!!!!!!!!!!!!!!!!!!___+ $;~;~~;~",
">>>]>>>]]]>>>____+ + :>>>>>>::  :>>>]]]]]>>>]]]]>>>___+.+>>>>>>>",
"..+  +. . ++  ___+.+++( ( ( (+++. .+(   ((++.(  (+____. .( (.+++",
".@@#######****____*********$+..@@##########******_____********$+",
".@-=*,*,*,=-=-____-=-*=;=&)~ +.@*)#$=-$=-='=,;$-)_____'-$,-$!$~>",
" @=-$'$,)-$$-'____$)$-;-$)=~>+^#*'$;$;-)'-;$;-$;_____-$;$',$,)~>",
"+*;$$)-!$;$)$-'___$)-$-;,$)~>./#*,$,$;$)'$,$,$-;____')'-$$,$!)~>",
"+*=-${$!)-$-),$___,$;$-;$)!~>.^#)$)'-;-')$;-;-$_____$-$;$,-$,)~>",
".*);${-,$;$!$;$____-;$;-,,=~>+.#&)$)$-$-)$;$!))____!${$$-;{)-)~>",
"+&$;)))!){))-;-____);)')'))~> .&$)')-!))));-)-_____{)-{$!${$))~>",
"+$';;;;;;;;;;;;____{{{{{{{~~> .$;;;;;;;;;;;;;_____!!!!!!!!~!,!~>",
"++ >>>>>>>>>>>>>___>   >>>>>>+++>>>>>>>>]]]]_____>]]]>>>>>>>>>>>",
".....++ +   +.//____++((  (  (.+++. .+.+( ( _____+( (+++. .+++. ",
"**********$+ .##____##********____*****$+..&____######**********",
"$=$='&==&$~ + #$____$;$-$$)$______$)$,$~ +.____)$$;$,-,$)$-$,$)$",
"$,-$'$,$-)~>+.#;$___,$')$--)______)-$;$~ ..____)$-;$-$,--')','-)",
"-,$',$,'$)~>+ #;$___$)$)$-$!______)'$,$~ ./____)$-$-$$,$)'-$',$)",
"$-,$'$',-)~ +.#';____!'---)_______')-$,~ ./___$)$;$$,,$,$-''-,)-",
"$-,$,$,'$)~ ++#;$____)--$-$_______')$,$~ +____$$)$--,$,$)'-$,-$)",
"))-'))')))~ ++';$____)$)$;________)'$;,~>+____$)$$-$-$,$)')',$$)",
"~~{{{{{{{~~>++$;;;___;;;!_____!____!!!~~>+____;;;;;;;;;;;;;!!!!~",
">>>>>>>>>>>>+.+>]]____   _____]____>>>>> +___>>>  + >>]]]>>>>>>>",
".+. +  ++    ++   ____+._____ ._____+ + +____ .+.^/.<++ .+.+. . ",
" @#######*********____*_____***$_____####____*****************$+",
".#$--$;$$,'$,$)-$;$________$,)$~_____$;$;____$!$-!'-)$-,$,')-$~>",
"+#$;$-;$-',$;-!$';$________,$)'~>_____;-____!',$!$;$)-)$-,'$;-~>",
"+#-;$;-);$;$-,-$;'-_______-;--)~> _____;____$,!'$!$))$)$,$)-;$~>",
" #$-$-;$-,'$,$!-$;$______,$$$),~> +________$)',,!-;$,-'-',)$-$~>",
".#$;-$;$;$;$;$)$;;$_____-;';-)$~] .________$!$!'!$;-)$),$,'-;)~>",
" &$;$;-)-',$---$';-,___{$)',$)$~] .&_______,$,!')-;$)$)$,')$;$~>",
".$;;;;;;;;;{{{{{{{{{{{{{{{{{{{{~>+.$;;____;;;!!!!!{{{{{{{{{{{~~>",
" +>>>>>>>>>>   >]]]]>>>]]]]>>]]>>+ +>>>>>>]]]>: :>]>>>>]]]>>>>>>",
". . .+.++++.//.+. .+.+(   (+.++ ++. .++++++++<...<++++ []][ ++.+",
"#####************$+.+@@########***************$+ .@#####********",
",$!$$;';$,&,$;$,$~>++#$$$$;${$,$;$;$'$;$;$!$);~ +.#$;-$!$)$)$;$)",
"$,,$,$;',;$!,;-;-~>++#,$)$;){,',$-;-';,-)-!$;$~:+.#;$!$)$)-$)$-{",
"$,!,$;';,$,!$-;',~>+(#,,)$;,,$!${$$;$;$;-!--;)~>+.#;$))$$-)-);)-",
",'!';;$;$,$!,);$;~>+(#${)$;${$,';$;-,;$;$-!)';~>+.#$;!$-))$)$;)$",
";$,$;$;-$;$,!-$,-~>+(#{$$;$,)-!,{$;$;,,;-)!-);~>++#;$-$)$-))!$)$",
";$,,;'';';,!$;$;'~>++#{$)$;,,-{';-{$,;$-;$!$!-~> +#;$!)!$)$)!;${",
",'!$;;-;,,$!$;)-,~>+.&${)$;${-;$;$);$;,$;-)-;-~> +&;;!$!$)$)$;$)",
"{{{{{{{{{{{{{{{{~~>++$~~~~~{{{{{{{{{{{{{{{{{{~~]+.$~~{{{{{{{{{{{",
">>>>>>>>>>>>>>>>>>>+.+ ::>>>>>>>>>>>>>>]]]]]>]]] ++>>>>>>]]]]]>>",
" . .   +++++.. ++++.....+++.+++.++ +++(  (  (+( (.++ .++++( (+++",
"................................................................"};
